<svg width="40" height="40" viewBox="0 0 40 40" fill="none" xmlns="http://www.w3.org/2000/svg">
<g clip-path="url(#clip0_591_5014)">
<path d="M35.7878 16.481H36.7222C36.7714 16.481 36.8206 16.4289 36.8206 16.3768V14.6043C36.8206 14.5521 36.7714 14.5 36.7222 14.5H35.4436C33.919 14.5 33.1321 14.9692 32.6895 16.0118L29.837 22.9455C29.6895 23.3626 29.3944 23.5711 28.9517 23.5711V14.6043C28.9517 14.5521 28.9026 14.5 28.8534 14.5H26.7878C26.7386 14.5 26.6895 14.5521 26.6895 14.6043V25.2915C26.6895 25.3957 26.7878 25.5 26.8862 25.5H29.1976C30.7222 25.5 31.4108 25.0308 31.8534 23.9882L34.6567 17.1588C34.8534 16.6896 35.1485 16.481 35.7878 16.481Z" fill="#D71921"/>
<path d="M10.3607 19.9739C11.1967 19.609 11.8852 18.827 11.8852 17.5758C11.8852 15.6469 10.2131 14.5 8.2459 14.5H2.09836C2.04918 14.5 2 14.5521 2 14.6043V16.3246C2 16.3768 2.04918 16.4289 2.09836 16.4289H7.80328C8.73771 16.4289 9.32787 17.0024 9.32787 17.6801C9.32787 18.3578 8.68853 18.9313 7.80328 18.9313H4.40984V17.6801C4.40984 17.628 4.36066 17.5758 4.31148 17.5758H2.09836C2.04918 17.5758 2 17.628 2 17.6801V25.3957C2 25.4479 2.04918 25.5 2.09836 25.5H8.14754C10.4098 25.5 12.0328 24.4573 12.0328 22.3199C12.082 21.2251 11.4426 20.3389 10.3607 19.9739ZM7.95082 23.5711H4.40984V21.0166H7.95082C8.88525 21.0166 9.52459 21.59 9.52459 22.3199C9.52459 22.9976 8.88525 23.5711 7.95082 23.5711Z" fill="#D71921"/>
<path d="M37.9511 25.3959L34.3609 20.8604H34.3117L33.3281 23.2063V23.2585L34.9019 25.3438C35.0003 25.5002 35.1478 25.5523 35.3445 25.5523H37.9019C38.0003 25.5002 38.0003 25.448 37.9511 25.3959Z" fill="#D71921"/>
<path d="M15.9667 17.5757H13.9011C13.8519 17.5757 13.8027 17.6278 13.8027 17.6799V25.3956C13.8027 25.4477 13.8519 25.4999 13.9011 25.4999H15.9667C16.0159 25.4999 16.065 25.4477 16.065 25.3956V17.6799C16.065 17.6278 16.0159 17.5757 15.9667 17.5757Z" fill="#D71921"/>
<path d="M24.524 14.5H22.4585C22.4093 14.5 22.3601 14.5521 22.3601 14.6043V23.519C21.8683 23.519 21.6224 23.3104 21.4749 22.8934L18.6224 16.0118C18.1798 14.9692 17.3437 14.5 15.8683 14.5H13.9011C13.8519 14.5 13.8027 14.5521 13.8027 14.6043V16.3246C13.8027 16.3768 13.8519 16.4289 13.9011 16.4289H15.4749C16.1142 16.4289 16.4585 16.6374 16.6552 17.1066L19.4585 23.936C19.9011 24.9787 20.5896 25.4479 22.1142 25.4479H24.4257C24.524 25.4479 24.6224 25.3436 24.6224 25.2393V14.6043C24.6224 14.5521 24.5732 14.5 24.524 14.5Z" fill="#D71921"/>
</g>
<defs>
<clipPath id="clip0_591_5014">
<rect width="36" height="11" fill="white" transform="translate(2 14.5)"/>
</clipPath>
</defs>
</svg>
