<svg width="40" height="40" viewBox="0 0 40 40" fill="none" xmlns="http://www.w3.org/2000/svg">
<path d="M9.31738 16.7085C10.313 16.6942 11.2989 16.9108 12.1973 17.3403C13.0957 17.7699 13.8831 18.402 14.4971 19.186L14.542 19.2358L12.8496 21.2905L12.7793 21.2202C12.3308 20.719 11.7844 20.3139 11.1748 20.0298C10.5653 19.7458 9.90452 19.588 9.23242 19.5669C6.6002 19.5669 4.68668 21.5414 4.68652 24.269C4.68652 26.9968 6.6001 28.9761 9.23242 28.9761C9.90449 28.955 10.5653 28.7981 11.1748 28.5142C11.7844 28.2301 12.3308 27.8249 12.7793 27.3237L12.8496 27.2583L14.542 29.3081L14.4971 29.3628C13.882 30.1454 13.0946 30.7759 12.1963 31.2046C11.298 31.6332 10.3126 31.8486 9.31738 31.8345C7.34298 31.88 5.42414 31.1769 3.94727 29.8657C2.48592 28.3706 1.66799 26.3627 1.66797 24.272C1.66797 22.1813 2.48595 20.1734 3.94727 18.6782C5.42543 17.3692 7.3434 16.6655 9.31738 16.7085ZM27.3623 16.9399H30.4111V19.6929H27.3623V27.4448C27.3624 28.59 27.7942 29.0923 28.7637 29.0923C29.5539 29.0563 30.3186 28.8024 30.9736 28.3589L31.1748 28.2632L30.4316 31.0913H30.4014C29.6026 31.5752 28.6768 31.8078 27.7441 31.7593C25.7548 31.7191 24.4229 30.1874 24.4229 27.9419V19.6929H21.9111V16.9399H24.4229V13.9614L27.3623 12.394V16.9399ZM19.249 31.5444H16.2549V16.9302H19.249V31.5444ZM36.4443 16.9302V31.5444H33.4502V16.9302H36.4443Z" fill="#004785"/>
<path d="M38.2083 14.3641C36.8682 12.454 35.0878 10.8947 33.0176 9.81819C30.9474 8.7417 28.6484 8.17969 26.3151 8.17969C23.9818 8.17969 21.6828 8.7417 19.6126 9.81819C17.5424 10.8947 15.762 12.454 14.4219 14.3641L14.2812 14.56H17.7224L17.7625 14.5199C18.8603 13.3525 20.1854 12.4222 21.6563 11.7863C23.1272 11.1504 24.7127 10.8223 26.3151 10.8223C27.9175 10.8223 29.503 11.1504 30.9739 11.7863C32.4448 12.4222 33.7699 13.3525 34.8676 14.5199L34.9078 14.56H38.3489L38.2083 14.3641Z" fill="#ED1C2E"/>
</svg>
