<svg width="40" height="40" viewBox="0 0 40 40" fill="none" xmlns="http://www.w3.org/2000/svg">
<g clip-path="url(#clip0_596_1350)">
<path d="M33.3252 22.5554C31.8652 26.1754 29.4352 27.1954 29.4352 27.1954C36.6152 19.9254 32.2252 11.5454 32.2252 11.5454C31.1652 9.66539 32.5152 8.84539 32.5152 8.84539C29.4352 9.61539 30.3952 12.1654 30.3952 12.1654C31.9452 15.8554 31.6352 18.8554 31.1052 20.7054L30.0852 20.1354L30.1052 20.1154C30.1052 20.1154 32.5152 10.6354 22.6952 7.30539L22.6852 5.52539H20.6152V17.2754L30.2452 22.7654C30.0652 23.1254 29.8852 23.4554 29.6852 23.7754L20.0052 18.1654L10.2852 23.7754C10.0952 23.4554 9.90516 23.1254 9.72516 22.7654L19.3552 17.2754V5.52539H17.2852L17.2752 7.30539C7.48516 10.6354 9.89516 20.1154 9.89516 20.1154L9.91516 20.1354L8.89516 20.7054C8.36516 18.8554 8.05516 15.8554 9.60516 12.1654C9.60516 12.1654 10.5652 9.61539 7.48516 8.84539C7.48516 8.84539 8.83516 9.66539 7.77516 11.5454C7.77516 11.5454 3.39516 19.9254 10.5652 27.1954C10.5652 27.1954 8.12516 26.1754 6.67516 22.5554C6.67516 22.5554 5.84516 20.7954 3.53516 21.1754C3.53516 21.1754 4.40516 21.5754 4.91516 23.1654C4.91516 23.1654 6.99516 29.7954 15.0452 30.8054V34.4654H18.9952V29.0654C18.9952 29.0654 14.8052 29.0354 11.6052 25.5154L12.5952 24.9354C12.7852 25.1154 15.8252 27.9254 19.9752 27.9954C19.9852 27.9954 19.9952 27.9954 19.9952 27.9954C20.0052 27.9954 20.0152 27.9954 20.0152 27.9954C24.1652 27.9254 27.2052 25.1054 27.3952 24.9354L28.3952 25.5254C25.1952 29.0454 21.0052 29.0754 21.0052 29.0754V34.4754H24.9552V30.8154C32.9952 29.8054 35.0852 23.1754 35.0852 23.1754C35.5952 21.5754 36.4752 21.1854 36.4752 21.1854C34.1552 20.7954 33.3252 22.5554 33.3252 22.5554ZM28.1852 19.0554L22.7352 16.0254L22.7052 9.52539H22.7352C22.7352 9.52539 29.2852 11.3054 28.1852 19.0554ZM17.2652 9.52539H17.2952L17.2652 16.0254L11.8252 19.0654L11.8152 19.0554C10.7152 11.3054 17.2652 9.52539 17.2652 9.52539ZM20.0152 20.6254L25.4352 23.7954V23.8054L25.3852 23.7754C23.4452 25.3054 21.5952 25.8154 19.9952 25.8154C18.3952 25.8154 16.5452 25.3054 14.6052 23.7754L14.5552 23.8054V23.7954L20.0152 20.6254Z" fill="#0056A7"/>
</g>
<defs>
<clipPath id="clip0_596_1350">
<rect width="32.93" height="28.95" fill="white" transform="translate(3.53516 5.52539)"/>
</clipPath>
</defs>
</svg>
