<svg width="40" height="40" viewBox="0 0 40 40" fill="none" xmlns="http://www.w3.org/2000/svg">
<path d="M19.9971 8.6958C10.353 8.6958 4 13.7559 4 20.0031C4 26.2444 10.353 31.3103 19.9971 31.3103C29.6411 31.3103 36 26.2503 36 20.0031C36 13.7559 29.6411 8.6958 19.9971 8.6958Z" fill="white"/>
<path d="M22.847 24.223C25.5974 23.7469 34.8712 21.8369 33.7252 16.5418C33.3138 14.6435 31.3627 12.5572 28.4125 11.1056C26.0558 10.0477 23.182 9.43066 19.9555 9.43066C11.0049 9.43066 4.78125 14.1616 4.78125 20.0033C4.78125 24.0701 7.802 27.5963 12.6622 29.3653C13.6966 26.6501 17.7987 25.0986 22.847 24.223Z" fill="#007DC5"/>
<path d="M20.0211 26.0975C16.0071 26.6029 14.1617 27.8958 12.9805 29.4709C15.0256 30.1702 17.3823 30.564 19.9623 30.564C28.9188 30.564 35.1425 25.833 35.1425 19.9972C35.1425 19.4801 35.0954 18.9688 34.9955 18.4751C34.6958 25.3335 24.4111 25.5509 20.0211 26.0975Z" fill="url(#paint0_linear_591_4995)"/>
<path d="M11.3234 14.4844H8.32031L8.35557 14.5725C8.49074 14.8958 8.47899 15.4893 8.47311 16.0124C8.47311 16.1358 8.46724 22.9413 8.46724 22.9413H8.52601C8.53776 22.9413 9.89534 22.9883 11.1765 22.9883C13.8564 22.9883 15.6606 21.1723 15.6606 18.4631C15.6606 16.0476 13.9563 14.4844 11.3234 14.4844ZM9.75429 15.2366C9.92472 15.2249 10.4595 15.1837 10.8415 15.1837C13.1335 15.1837 14.2031 16.2945 14.2031 18.6805C14.2031 21.1488 13.257 22.3477 11.2999 22.3477C9.87183 22.3477 9.75429 22.2772 9.75429 21.4309V15.2366Z" fill="white"/>
<path d="M23.7173 22.8828C23.6702 22.3833 23.6526 22.0483 23.6526 21.7544V18.7925H22.2245L22.2715 18.8806C22.2715 18.8806 22.4184 19.1686 22.4184 19.7915C22.4184 19.8151 22.4243 21.8485 22.3656 22.3304C22.0188 22.4185 21.5604 22.4479 21.2607 22.4479C18.9981 22.4479 17.8462 21.1491 17.8462 18.5868C17.8462 16.6297 19.1391 15.1723 20.9903 15.0371C21.9659 14.9666 22.9004 15.231 23.4881 15.7482L23.588 15.8364V14.6375L23.5409 14.6257C22.9532 14.514 22.2656 14.3906 21.5898 14.3906C18.3281 14.3906 16.3828 16.1067 16.3828 18.9746C16.3828 22.0365 18.7571 23.1238 20.9845 23.1238C21.9248 23.1238 22.9004 23.0533 23.6585 22.9298L23.7173 22.9181V22.8828Z" fill="white"/>
<path d="M28.8139 18.2927C29.6308 18.0752 30.4124 17.3582 30.4124 16.3062C30.4124 15.1602 29.3781 14.4785 27.6503 14.4785H25.082L25.0997 14.5549C25.0997 14.5608 25.1761 14.8958 25.1761 15.6774V23.006H25.2407C25.2525 23.006 26.2515 22.9883 27.4857 22.9883C29.6425 22.9883 30.8826 22.048 30.8826 20.4142C30.8767 19.4034 30.0422 18.5571 28.8139 18.2927ZM26.4514 18.7099H27.1155C28.6435 18.7099 29.4192 19.3094 29.4192 20.4965C29.4192 21.7483 28.7492 22.3536 27.374 22.3536C26.7099 22.3536 26.4455 22.1127 26.4455 21.4956V18.7099H26.4514ZM26.4572 15.1485H27.2976C28.62 15.1485 29.1841 15.5481 29.1841 16.4826C29.1841 17.5463 28.4907 18.0458 27.0038 18.0458H26.4514L26.4572 15.1485Z" fill="white"/>
<defs>
<linearGradient id="paint0_linear_591_4995" x1="12.5988" y1="24.5224" x2="35.3069" y2="24.5224" gradientUnits="userSpaceOnUse">
<stop offset="0.1" stop-color="#007DC5"/>
<stop offset="0.1776" stop-color="#0080C8"/>
<stop offset="0.2861" stop-color="#0089CF"/>
<stop offset="0.4" stop-color="#0095DA"/>
<stop offset="0.75" stop-color="#00B49D"/>
<stop offset="1" stop-color="#72BF44"/>
</linearGradient>
</defs>
</svg>
