<svg width="40" height="40" viewBox="0 0 40 40" fill="none" xmlns="http://www.w3.org/2000/svg">
<g clip-path="url(#clip0_516_3944)">
<path d="M24.4195 22.4109C24.3502 22.0127 24.2463 21.6317 24.0818 21.2767C23.5796 20.1945 22.8783 19.2854 21.8307 18.6707C20.203 17.7183 18.229 17.7269 16.6186 18.7053C15.8913 19.1469 15.2853 19.7789 14.9043 20.5408C14.7744 20.8005 14.6705 21.0689 14.5753 21.346C14.1511 22.6966 14.1684 24.5148 14.9303 25.7443C15.1814 26.1512 15.545 26.4888 15.9866 26.662C16.4281 26.8352 16.9476 26.8179 17.3459 26.5581C17.8567 26.2291 17.9519 25.5971 17.8567 25.0343C17.7355 24.3157 17.6489 23.6057 17.9086 22.9044C17.9952 22.6793 18.1164 22.4629 18.2809 22.2984C18.3848 22.1945 18.506 22.1166 18.6359 22.0473C18.913 21.9088 19.2333 21.8482 19.5363 21.9001C20.0731 21.9867 20.506 22.4023 20.7485 22.8871C20.9822 23.372 21.0515 23.9261 21.0775 24.4629C21.19 26.8179 20.6272 29.2508 20.0298 31.5192C19.9692 31.7529 19.9086 31.9867 19.8394 32.2118C19.7874 32.3936 19.7008 32.6187 19.8134 32.7919C19.8653 32.8698 19.9346 32.9218 20.0212 32.9564C20.3675 33.0949 20.6532 32.8871 20.887 32.6447C22.2636 31.2594 23.1554 29.4672 23.7528 27.623C23.9779 26.9391 24.177 26.2378 24.3069 25.5192C24.4887 24.5495 24.5926 23.4326 24.4195 22.4109Z" fill="#007D74"/>
<path d="M34.2983 11.5286C34.2983 11.1736 33.9866 10.9398 33.649 10.9485C33.3113 10.9658 32.991 11.139 32.6793 11.2602C26.61 13.5632 19.7615 14.0048 13.3632 13.087C12.2637 12.9225 11.1641 12.7061 10.0559 12.5329C9.37191 12.429 8.68792 12.2732 7.99528 12.2125C7.40654 12.1693 6.66195 12.1519 6.18576 12.5589C5.55373 13.1043 5.60567 14.1433 5.96065 14.8273C6.39355 15.6411 7.1468 16.2558 7.92602 16.7234C8.68792 17.1736 9.59702 17.6584 10.4974 17.6065C12.939 17.4506 15.3806 17.2169 17.8135 16.8965C21.9607 16.3597 26.307 15.8489 30.1944 14.2385C31.4671 13.7104 32.7226 13.061 33.8135 12.2125C34.0126 12.0654 34.2983 11.8143 34.2983 11.5286Z" fill="#007D74"/>
<path d="M16.8877 9.45035C16.8877 10.7664 17.9526 11.84 19.2773 11.84C20.602 11.84 21.6669 10.775 21.6669 9.45035C21.6669 9.25121 21.6236 9.06074 21.537 8.87892C21.3379 8.44602 21.1041 8.22957 21.1301 7.71875C21.1561 7.01745 20.2643 7.00879 19.7708 7.00879C19.2427 7.00879 18.6886 7.07805 18.2124 7.32048C17.8228 7.5023 17.4938 7.79667 17.2686 8.15165C17.0349 8.51528 16.8964 8.94818 16.8877 9.38974C16.8877 9.40706 16.8877 9.43303 16.8877 9.45035Z" fill="#D30D2C"/>
</g>
<defs>
<clipPath id="clip0_516_3944">
<rect width="28.5974" height="26" fill="white" transform="translate(5.70117 7)"/>
</clipPath>
</defs>
</svg>
