<svg width="40" height="40" viewBox="0 0 40 40" fill="none" xmlns="http://www.w3.org/2000/svg">
<path d="M36.6663 31.8873C36.6661 32.5122 36.5427 33.131 36.3033 33.7082C36.0639 34.2854 35.7132 34.8098 35.2711 35.2514C34.829 35.6931 34.3043 36.0433 33.7268 36.2822C33.1494 36.521 32.5306 36.6437 31.9057 36.6434H8.09435C6.83232 36.6439 5.62175 36.1432 4.72886 35.2513C3.83598 34.3594 3.33389 33.1494 3.33301 31.8873V8.11116C3.33406 6.8493 3.83625 5.63953 4.72914 4.74789C5.62202 3.85625 6.83249 3.35574 8.09435 3.35645H31.9057C32.5305 3.35601 33.1492 3.47866 33.7266 3.71738C34.304 3.95609 34.8288 4.30621 35.2708 4.74774C35.7129 5.18926 36.0637 5.71354 36.3031 6.29064C36.5426 6.86774 36.666 7.48635 36.6663 8.11116V31.8873Z" fill="#FFE400"/>
<path d="M27.1497 23.3294C27.0003 22.1692 26.4202 21.1075 25.5246 20.3549C25.392 20.2382 25.2482 20.1295 25.0891 20.0003C25.2217 19.9009 25.3317 19.8247 25.4345 19.7392C26.0791 19.2056 26.577 18.5165 26.8813 17.7369C27.1694 16.9998 27.2608 16.2004 27.1464 15.4173C27.0196 14.4646 26.5986 13.5754 25.9421 12.8735C25.4743 12.3526 24.8963 11.9423 24.2501 11.6726C23.6225 11.4185 22.9508 11.2912 22.2737 11.2981H14.6863C14.634 11.2952 14.5816 11.2952 14.5292 11.2981C14.446 11.3019 14.3676 11.3382 14.3109 11.3992C14.2541 11.4602 14.2235 11.541 14.2257 11.6242C14.2257 11.6772 14.2257 11.7296 14.2257 11.782V28.1756C14.2257 28.2578 14.2211 28.3406 14.2257 28.4228C14.2291 28.4907 14.2561 28.5553 14.3021 28.6054C14.3481 28.6555 14.4102 28.688 14.4775 28.6972C14.5297 28.7035 14.5822 28.7055 14.6346 28.7031H22.4924C23.2838 28.7062 24.0616 28.4983 24.7458 28.1007C25.7234 27.5513 26.478 26.6772 26.8786 25.6299C27.1679 24.8998 27.2613 24.1067 27.1497 23.3294ZM21.1112 23.9193H19.6935V16.0986H21.0953C21.0953 16.0986 21.09 16.0946 21.0953 16.0946V16.0986H21.1112V23.9193Z" fill="#1E1719"/>
</svg>
