<svg width="44" height="34" viewBox="0 0 44 34" fill="none" xmlns="http://www.w3.org/2000/svg">
<path d="M43.2397 17.424L42.8623 17.1632C42.1241 16.4373 41.2476 15.8954 40.2947 15.576C39.3417 15.2566 38.3355 15.1674 37.3472 15.3147C35.6267 15.4684 33.9689 16.0843 32.5242 17.1065V17.0158C32.5377 16.3028 32.5867 15.591 32.6709 14.8837C32.7339 14.1466 32.8072 13.4094 32.8072 12.7063C32.8295 12.0331 32.7261 11.362 32.5032 10.733C32.4765 10.6586 32.4286 10.5953 32.3663 10.5525C32.3041 10.5096 32.2308 10.4894 32.1572 10.4948C31.3704 10.5748 30.6105 10.8462 29.9344 11.2887L29.7666 11.6743C29.7638 12.7535 29.6548 13.8294 29.4416 14.8837C29.4184 14.9761 29.3904 15.0669 29.3577 15.1559C29.0958 17.8703 29.0958 20.6069 29.3577 23.3213C29.3577 23.5481 29.8086 23.8997 30.1231 24.0358C30.8435 24.0549 31.5591 23.9039 32.2201 23.5934H32.4612C32.5093 23.5866 32.5556 23.5693 32.5973 23.5425C32.639 23.5156 32.6751 23.4799 32.7036 23.4375C32.732 23.395 32.7522 23.3467 32.7628 23.2955C32.7734 23.2443 32.7743 23.1914 32.7653 23.1398V22.4707C33.0522 21.3066 33.623 20.2472 34.4179 19.4033C35.2129 18.5594 36.2028 17.962 37.2843 17.6735C37.8248 17.547 38.3866 17.5768 38.9131 17.76C39.4396 17.9431 39.9121 18.2732 40.283 18.7169C40.5231 19.8444 40.3462 21.0287 39.7902 22.0171C39.007 23.4039 37.7908 24.4418 36.3616 24.943C34.6822 25.5902 32.8984 25.8604 31.1192 25.7369C31.0248 25.6802 29.1795 24.3306 29.1795 24.3306C27.4737 22.9215 25.6231 21.7303 23.6644 20.7809C23.2143 20.5093 22.7925 20.1861 22.4062 19.817L22.228 19.6469C21.1795 18.7169 19.1349 17.2653 17.5098 16.0972L16.6395 15.4508V15.258C16.6395 15.2013 17.688 14.5435 17.688 14.5435C18.4854 14.1176 19.2318 13.5882 19.9108 12.9671L20.11 12.8424L23.6539 10.6649C27.051 8.64626 30.9095 6.35543 32.9331 4.08727L33.0274 3.73571V3.42948C33.1476 3.0122 33.1476 2.56529 33.0274 2.148C33.0142 2.07515 32.9812 2.00818 32.9326 1.95568C32.8841 1.90317 32.8222 1.86748 32.7548 1.85313C31.1716 1.68302 29.1375 2.7037 27.2817 4.58627C26.9385 4.92804 26.554 5.21795 26.1389 5.44815L25.8558 5.60694C23.7588 6.86577 19.1979 9.96181 16.7863 11.6403C17.0143 8.23795 17.4239 4.85274 18.0131 1.50157L17.9501 1.10463L17.6985 0.605634L17.5098 0.24272C17.1467 0.0512087 16.7284 0.0227002 16.346 0.163361L15.8637 0.356135L15.2241 0.605634C15.1631 0.619652 15.1063 0.649765 15.0588 0.6933C15.0112 0.736835 14.9743 0.792439 14.9515 0.855134C13.6454 4.68956 12.8579 8.70783 12.6133 12.7857C10.8456 11.5859 9.01853 10.4918 7.14022 9.50818V9.50818H7.0144C6.55522 9.38434 6.12142 9.16897 5.73524 8.87309L4.86499 8.26068L3.52293 7.33073L3.16644 7.24002C2.38456 7.50739 1.6897 8.01107 1.16382 8.69164C1.1238 8.76363 1.1021 8.84579 1.10092 8.92978C1.11074 9.04527 1.13182 9.15934 1.16382 9.27003L1.22674 9.56487L1.28965 9.74632C2.47876 10.825 3.78503 11.7428 5.17954 12.4795L7.0144 13.5342L9.83484 15.1899L10.3171 15.6095L10.6422 15.8137H10.7051C9.95017 16.3467 5.58845 19.5108 5.58845 19.5108L2.84141 21.5521C2.33796 21.8506 1.81995 22.1194 1.28965 22.3573C0.77966 22.5505 0.348983 22.932 0.073394 23.4347L0 23.6048L0.073394 23.7182L0.283097 23.8883L0.555698 24.0811L0.859761 24.2966L1.13237 24.3533C2.00517 24.2253 2.84804 23.9214 3.61729 23.4574C4.82306 22.879 8.09435 20.7469 9.49932 19.8396L10.097 19.4427C10.3814 19.4011 10.6459 19.262 10.8519 19.0458C11.2474 18.7295 11.6685 18.4524 12.1101 18.2179C12.1101 18.2179 12.3407 18.0818 12.5399 17.9684V18.1499C12.5155 21.6982 12.7751 25.2422 13.3158 28.7422V28.7422V28.8556C13.6397 29.6329 13.8824 30.4469 14.0393 31.2825L14.5635 33.2105L14.7208 33.3919C15.2777 33.7528 15.917 33.9375 16.5661 33.9249H16.7234L16.8178 33.6868C16.8696 33.3953 16.8942 33.099 16.8912 32.8022C16.8912 32.4506 16.8912 32.065 16.8912 31.5887V30.8969C16.692 27.6648 16.5032 22.9584 16.5032 19.8964V19.6469L19.2293 21.5067C23.0039 24.1491 28.6657 28.1638 32.1572 29.2185C32.2439 29.2465 32.3358 29.2496 32.424 29.2278C32.5122 29.2059 32.5937 29.1597 32.6605 29.0937L33.1952 28.7308H33.2896C33.4074 28.6276 33.5012 28.4958 33.5631 28.346C33.625 28.1963 33.6535 28.0328 33.646 27.869C36.5504 27.7215 40.608 26.508 42.7784 23.5594C43.5537 22.4908 43.9812 21.1753 43.9946 19.817C44.041 18.9891 43.785 18.1746 43.2817 17.5488" fill="#FCAF17"/>
</svg>
