<svg width="40" height="40" viewBox="0 0 40 40" fill="none" xmlns="http://www.w3.org/2000/svg">
<g clip-path="url(#clip0_516_3935)">
<path d="M12.7511 20.7863C12.7793 23.2593 12.9207 26.0977 13.3446 28.3741C13.3446 28.3741 13.3446 28.4022 13.3446 28.4303C13.6838 28.9361 14.0512 30.9596 14.3338 31.6059C14.3338 31.634 14.3621 31.634 14.3903 31.6621C14.5882 31.8027 15.2665 32.0556 15.7187 31.9994C15.7469 31.9994 15.7752 31.9713 15.7752 31.9432C15.8882 31.4092 15.8035 30.9315 15.7469 29.976C15.5774 27.6153 15.4078 23.8495 15.436 21.5731C17.3014 22.613 24.254 27.5591 27.8716 28.5989C27.9564 28.627 28.0412 28.5989 28.0977 28.5427C28.2956 28.346 28.4086 28.3179 28.6347 28.2055C28.7478 28.1493 28.8608 27.8963 28.8325 27.5872C31.1218 27.5029 34.3155 26.6317 35.983 24.524C37.1418 23.0907 37.1135 21.0954 36.4069 20.4209C36.3504 20.3647 36.2091 20.3366 36.0961 20.2242C34.9938 19.1282 33.4959 18.8471 31.9132 18.9315C30.3022 19.0158 29.0021 19.6902 27.9847 20.3366C27.8999 18.7909 28.5217 16.8518 27.9847 15.5872C27.9564 15.531 27.9281 15.531 27.8716 15.531C27.3911 15.531 26.4302 15.8682 26.2324 16.0649C26.1759 16.0931 26.1759 16.1493 26.1476 16.2336C26.1476 16.5989 26.0345 18.4537 25.8367 18.6504C25.8084 18.6785 25.8084 18.7066 25.8084 18.7909C25.5823 21.0392 25.6106 22.9502 25.7802 24.5802C25.7802 24.6364 26.0063 24.8612 26.2606 24.9455C26.4302 25.0017 27.165 24.8612 27.7868 24.6364C27.8716 24.6083 27.9847 24.6083 28.0129 24.6083C28.0695 24.6083 28.0977 24.524 28.0977 24.4678C28.0977 24.3553 28.0977 24.0462 28.126 23.9338C28.4651 22.5005 29.9348 20.6457 31.8001 20.3647C32.9872 20.168 33.7502 20.5895 34.2872 21.1797C34.4286 21.3202 34.5981 22.4724 33.9198 23.7371C33.4394 24.6364 32.4502 25.4233 31.1501 25.9291C29.7652 26.4631 28.3803 26.5755 26.9389 26.5193C25.5258 25.6762 23.18 23.7371 21.1168 22.9502C20.7777 22.8378 20.2124 22.3038 19.9298 22.1071C18.9406 21.2921 16.7926 19.9151 15.4926 19.072V19.0439C15.4643 18.8753 15.4926 18.8471 15.5208 18.7628C15.5491 18.7066 15.5773 18.6785 15.6056 18.6504C16.0578 18.3413 17.9514 17.3296 18.0927 17.0767C18.1493 17.0205 18.2623 16.9642 18.3188 16.9361C21.1451 15.2219 26.1193 12.9174 28.2956 10.6692C28.4369 10.5849 28.4651 10.5286 28.4651 10.4724C28.4651 10.3881 28.4934 10.2757 28.4934 10.1914C28.5782 9.88228 28.6064 9.62935 28.5217 9.34832C28.5217 9.29211 28.4651 9.26401 28.4369 9.26401C27.2781 9.1516 25.7237 9.85417 24.3105 11.2031C23.8866 11.5966 23.5474 11.7371 23.1517 11.9619C21.5125 12.8893 17.6688 15.25 15.8317 16.4303C15.8035 16.4584 15.7752 16.4303 15.7752 16.4022C15.8882 14.2664 16.3122 11.2031 16.7644 8.84246C16.7644 8.75816 16.7644 8.70195 16.7361 8.67385C16.5948 8.44902 16.51 8.19609 16.4535 8.11179C16.4535 8.11179 16.4535 8.11179 16.4252 8.08368C16.1143 7.91506 15.86 7.99937 15.6339 8.02748C15.4078 8.08368 15.1251 8.2523 14.7577 8.33661C14.7012 8.33661 14.6729 8.36471 14.6729 8.42092C13.7685 10.5849 12.9772 14.2945 12.8359 17.1891C12.8359 17.1891 12.8359 17.2172 12.8076 17.2172C10.9988 16.0649 9.3313 15.2219 8.34211 14.7441C8.31384 14.7441 8.28558 14.7441 8.28558 14.716C7.94643 14.6879 7.55075 14.435 7.18334 14.2101C6.78766 13.9572 5.9963 13.4233 5.48758 13.1141C5.43105 13.086 5.37453 13.0579 5.318 13.086C4.92232 13.1422 4.10271 13.7043 3.8766 14.0696C3.79182 14.182 3.96139 14.435 3.93313 14.5755C3.93313 14.6036 3.93313 14.6036 3.96139 14.6317C4.41359 15.1094 5.62889 15.9244 6.92897 16.627C8.42689 17.442 9.95308 18.2008 10.5749 18.5942C10.6031 18.6223 10.6031 18.6223 10.6031 18.6223C10.6879 18.7066 10.7444 18.7628 10.9423 18.8753C11.2532 19.0439 11.3097 19.072 11.3945 19.1563C11.4227 19.1844 11.4227 19.2406 11.3662 19.2687C9.7835 20.3647 6.64635 22.3881 5.14842 23.3998C4.92232 23.5404 4.07444 23.9057 3.90487 23.99C3.50919 24.1586 3.17004 24.4116 3.05699 24.6926C3.02872 24.7488 3.05699 24.7769 3.11351 24.7769C3.36788 24.8331 3.4244 25.0017 3.59398 25.086C3.6505 25.1141 3.70703 25.1141 3.79182 25.1141C4.10271 25.1141 4.66796 24.9174 5.62889 24.4959C6.7594 23.99 10.2357 21.8542 10.6596 21.6294C10.6596 21.6294 10.6596 21.6294 10.6879 21.6294C10.8857 21.6294 11.0836 21.4888 11.2532 21.3483C11.451 21.1797 11.9597 20.8987 12.2424 20.7582L12.8076 20.449L12.7511 20.7863Z" fill="#FABE00"/>
</g>
<defs>
<clipPath id="clip0_516_3935">
<rect width="34" height="24" fill="white" transform="translate(3 8)"/>
</clipPath>
</defs>
</svg>
