<svg width="40" height="40" viewBox="0 0 40 40" fill="none" xmlns="http://www.w3.org/2000/svg">
<g clip-path="url(#clip0_591_5008)">
<path d="M5 23.9525C5 28.8654 8.98519 32.8571 13.9046 32.8571C15.4791 32.8571 16.9556 32.4456 18.2426 31.7334V25.9843C17.4913 26.9708 16.3023 27.6111 14.9695 27.6111C12.696 27.6111 10.8537 25.7687 10.8537 23.4952C10.8537 22.4238 11.2718 21.4373 11.9447 20.7056C11.2326 19.3989 10.8341 17.9094 10.8341 16.3219C10.8341 16.0801 10.8471 15.8319 10.8602 15.5967C7.44338 16.8249 5 20.1045 5 23.9525Z" fill="url(#paint0_linear_591_5008)"/>
<path d="M10.8281 16.309C10.8281 17.8966 11.2332 19.3861 11.9388 20.6927C12.6901 19.8761 13.768 19.3665 14.9636 19.3665C15.4274 19.3665 15.8717 19.4449 16.2898 19.5886C15.8259 18.8896 15.5581 18.0468 15.5581 17.1452C15.5581 14.6953 17.5442 12.7093 19.9941 12.7093C21.7841 12.7093 23.3259 13.7676 24.025 15.2898C24.6848 15.133 25.3773 15.0481 26.0894 15.0481C27.1609 15.0481 28.1866 15.2376 29.1339 15.5838C28.768 10.8604 24.8155 7.14307 20.0006 7.14307C14.9309 7.14307 10.8281 11.2524 10.8281 16.309Z" fill="url(#paint1_linear_591_5008)"/>
<path d="M24.0313 15.2898C24.2927 15.8581 24.4364 16.4853 24.4364 17.1452C24.4364 18.0467 24.1685 18.8895 23.7047 19.5885C24.1228 19.4513 24.567 19.3664 25.0309 19.3664C27.3044 19.3664 29.1467 21.2088 29.1467 23.4823C29.1467 25.7558 27.3044 27.5981 25.0309 27.5981C23.6981 27.5981 22.5091 26.9644 21.7578 25.9779V31.727C23.0448 32.4392 24.5213 32.8507 26.0958 32.8507C31.0152 32.8507 35.0004 28.8655 35.0004 23.9461C35.0004 19.0267 31.0152 15.0415 26.0958 15.0415C25.3837 15.048 24.6912 15.133 24.0313 15.2898Z" fill="url(#paint2_linear_591_5008)"/>
</g>
<defs>
<linearGradient id="paint0_linear_591_5008" x1="11.62" y1="34.1745" x2="11.62" y2="15.4924" gradientUnits="userSpaceOnUse">
<stop stop-color="#55C3F1"/>
<stop offset="0.15" stop-color="#55C3F1"/>
<stop offset="0.2738" stop-color="#4DBFEF"/>
<stop offset="0.437" stop-color="#38B2E7"/>
<stop offset="0.6223" stop-color="#009DDB"/>
<stop offset="0.8221" stop-color="#0082C9"/>
<stop offset="1" stop-color="#0068B7"/>
</linearGradient>
<linearGradient id="paint1_linear_591_5008" x1="10.8293" y1="13.9186" x2="29.1399" y2="13.9186" gradientUnits="userSpaceOnUse">
<stop stop-color="#55C3F1"/>
<stop offset="0.15" stop-color="#55C3F1"/>
<stop offset="0.2738" stop-color="#4DBFEF"/>
<stop offset="0.437" stop-color="#38B2E7"/>
<stop offset="0.6223" stop-color="#009DDB"/>
<stop offset="0.8221" stop-color="#0082C9"/>
<stop offset="1" stop-color="#0068B7"/>
</linearGradient>
<linearGradient id="paint2_linear_591_5008" x1="28.3776" y1="14.3333" x2="28.3776" y2="34.9489" gradientUnits="userSpaceOnUse">
<stop stop-color="#55C3F1"/>
<stop offset="0.15" stop-color="#55C3F1"/>
<stop offset="0.2738" stop-color="#4DBFEF"/>
<stop offset="0.437" stop-color="#38B2E7"/>
<stop offset="0.6223" stop-color="#009DDB"/>
<stop offset="0.8221" stop-color="#0082C9"/>
<stop offset="1" stop-color="#0068B7"/>
</linearGradient>
<clipPath id="clip0_591_5008">
<rect width="30" height="25.7143" fill="white" transform="translate(5 7.14307)"/>
</clipPath>
</defs>
</svg>
