<svg width="40" height="40" viewBox="0 0 40 40" fill="none" xmlns="http://www.w3.org/2000/svg">
<path d="M31.5 7.27101L24.3647 10.1937L23.2261 12.3473C23.2261 12.3473 23.2261 12.3473 23.1502 12.3473L20.7211 17.1159C23.7574 17.3466 26.1106 19.8078 26.1106 22.7305C26.1106 25.8839 23.4538 28.3451 20.1898 28.3451C16.9257 28.3451 14.269 25.807 14.269 22.7305C14.269 19.8847 16.4703 17.5004 19.3548 17.1159L16.7739 12.1934L15.6353 10.1168L8.57591 7.11719V12.4242L12.6749 14.2701C10.0941 16.3467 8.5 19.3463 8.5 22.7305C8.5 28.8066 13.5858 33.6521 19.962 33.6521C26.2624 33.6521 31.4241 28.7297 31.4241 22.7305C31.4241 19.4232 29.83 16.4236 27.401 14.4239L31.5 12.578V7.27101V7.27101Z" fill="#FAC109"/>
<path d="M14.4961 6.34814L20.1133 9.34774L25.5786 6.42506L20.0373 16.9621L14.4961 6.34814Z" fill="#FAC109"/>
</svg>
