<svg width="40" height="40" viewBox="0 0 40 40" fill="none" xmlns="http://www.w3.org/2000/svg">
<path d="M4.04501 19.9504C3.98783 19.9788 3.98456 20.0311 4.03848 20.0659L8.97544 23.2243L10.3904 16.7793L4.04501 19.9504Z" fill="#EE3124"/>
<path d="M33.2768 16.7773H32.0285C31.9639 16.7773 31.8634 16.8011 31.8054 16.8296L25.5482 19.9516C25.4902 19.9801 25.4878 20.0323 25.5417 20.0663L30.3961 23.1606C30.4509 23.1946 30.5473 23.2231 30.6126 23.2231H31.8602C31.9247 23.2231 31.9337 23.1946 31.8806 23.1606L26.9257 20.003L33.289 16.828C33.3471 16.8011 33.3413 16.7773 33.2768 16.7773Z" fill="#F58220"/>
<path d="M30.6031 16.7773H21.9056L20.4922 23.2247H29.1881C29.2526 23.2247 29.2616 23.1962 29.2077 23.1622L24.2609 20.0046L30.6153 16.8296C30.6733 16.8011 30.6676 16.7773 30.6031 16.7773Z" fill="#EE3124"/>
<path d="M35.9471 16.7773H34.6988C34.6334 16.7773 34.5337 16.8011 34.4757 16.8296L28.2185 19.9516C28.1613 19.9801 28.1589 20.0323 28.212 20.0663L33.0664 23.1606C33.1204 23.1946 33.2184 23.2231 33.2829 23.2231H34.5313C34.5958 23.2231 34.6048 23.1946 34.5509 23.1606L29.5959 20.003L35.9593 16.828C36.0182 16.8011 36.0124 16.7773 35.9471 16.7773Z" fill="#FDB913"/>
<path d="M30.218 12.5586H9.74301C8.60006 12.5586 7.80024 13.2548 7.61152 14.1156C7.50777 14.588 7.69322 15.0081 8.06903 15.2961L15.4259 19.9997L15.4316 19.9965L15.4324 19.9997L30.2319 12.6108C30.289 12.5823 30.2833 12.5586 30.218 12.5586Z" fill="#EE3124"/>
<path d="M26.9705 27.3794L15.4324 20L15.4308 20.0024L15.4259 20L6.00374 24.7052C5.50212 24.9916 5.13285 25.4125 5.02909 25.8856C4.83874 26.7448 5.33219 27.4419 6.47595 27.4419H26.9509C27.0163 27.4427 27.0244 27.4142 26.9705 27.3794Z" fill="#EE3124"/>
</svg>
