<svg width="40" height="40" viewBox="0 0 40 40" fill="none" xmlns="http://www.w3.org/2000/svg">
<g clip-path="url(#clip0_515_1139)">
<path d="M16.6262 33.0622C15.9251 33.4843 15.3117 33.7657 14.6545 33.7657C12.9457 33.7657 11.5437 32.2649 11.4561 30.4826L14.7421 28.3721L19.9122 30.8578L16.6262 33.0622Z" fill="#82B9D9"/>
<path d="M18.5977 24.0574L16.1441 22.8848C15.0487 22.3689 14.041 21.9468 14.041 20.6336C14.041 19.977 14.2163 19.6017 14.523 19.2734L19.6931 21.7123L18.4225 22.5096C18.0719 22.7441 17.8091 22.9317 17.8091 23.26C17.8091 23.5414 18.1596 23.8229 18.5977 24.0574Z" fill="#B1D6A1"/>
<path d="M21.0076 11.9564L18.5102 13.598C18.2911 13.7387 17.9844 13.9732 17.9844 14.3484C17.9844 14.7705 18.554 15.0519 19.0798 15.3333L15.9252 13.8325C15.0051 13.4104 14.085 12.8945 14.085 11.7219C14.085 11.206 14.2164 10.8308 14.4355 10.4556L21.2267 6C22.0592 6.46901 22.8478 7.50084 22.8478 8.81407C22.804 10.268 22.1468 11.206 21.0076 11.9564Z" fill="#82B9D9"/>
<path d="M26.3528 17.2094L25.7394 17.5846L20.5693 15.1457L26.5719 11.2529C27.4044 11.7688 28.193 12.7538 28.193 14.067C28.1492 15.5209 27.492 16.5059 26.3528 17.2094Z" fill="#B1D6A1"/>
<path d="M21.9719 21.8994L25.0389 23.3533C26.1781 23.9162 26.5286 24.5259 26.5286 25.3701C26.5286 25.8391 26.2657 26.3081 25.9152 26.6364L20.7451 24.1976L21.6214 23.6817C22.3663 23.2595 22.5853 22.9781 22.5853 22.6967C22.6291 22.3684 22.4539 22.1339 21.9719 21.8994Z" fill="#82B9D9"/>
<path d="M27.405 34.0004C26.0905 32.9217 24.6885 32.2182 23.0235 31.3739L15.2246 27.6687C13.2529 26.7307 11.9385 25.4644 11.9385 23.4007C11.9385 21.3371 12.8586 20.3522 14.0416 19.5548L14.4797 19.2734C14.173 19.6017 13.9978 19.977 13.9978 20.6336C13.9978 21.8999 15.0493 22.3689 16.1008 22.8848L25.1704 27.1528C26.7478 27.8564 28.1936 29.1227 28.1936 31.2801C28.2813 32.4527 27.8431 33.4845 27.405 34.0004Z" fill="#00A439"/>
<path d="M26.4844 26.2139L25.9148 26.5891C26.2653 26.2608 26.5282 25.7918 26.5282 25.3228C26.5282 24.5255 26.1777 23.8688 25.0385 23.306L15.3117 18.7566C13.3401 17.8186 12.1133 16.6461 12.1133 14.5355C12.1133 12.6126 13.0334 11.3462 14.4354 10.4082C14.2164 10.7365 14.0849 11.1586 14.0849 11.6745C14.0849 12.8471 15.005 13.363 15.9251 13.7851L25.3891 18.2407C27.0978 19.038 28.4999 20.3043 28.4999 22.5087C28.4999 24.2909 27.7112 25.4166 26.4844 26.2139Z" fill="#0071B0"/>
</g>
<defs>
<clipPath id="clip0_515_1139">
<rect width="17" height="28" fill="white" transform="translate(11.5 6)"/>
</clipPath>
</defs>
</svg>
