<svg width="40" height="40" viewBox="0 0 40 40" fill="none" xmlns="http://www.w3.org/2000/svg">
<g clip-path="url(#clip0_516_3938)">
<path d="M34 20C34 27.7509 27.7024 34 20 34C12.2491 34 6 27.7024 6 20C6 12.2491 12.2491 6 20 6C27.7509 6 34 12.2491 34 20Z" fill="url(#paint0_radial_516_3938)"/>
<path d="M18.8371 31.1899C18.8371 31.1899 19.709 31.8196 18.7402 32.0134C18.7402 32.0134 9.19693 32.9338 8.66406 22.5186C8.66406 22.5186 8.66406 22.0826 9.00316 21.9857C9.00316 21.9857 9.29382 21.8888 9.53603 22.3248C9.53603 22.3248 10.1173 23.9235 11.0378 25.183C11.0378 25.183 11.4253 25.5705 11.7644 25.0861C11.7644 25.0861 12.4911 23.875 13.0239 23.6812C13.0239 23.6812 13.8475 23.003 13.8475 24.0688C13.8475 24.2626 13.799 25.9096 14.0897 27.2176C14.0897 27.2176 15.9305 26.6363 17.5776 26.6847C17.5776 26.6847 19.2731 26.7816 16.0758 29.2522C16.0274 29.2522 14.8163 29.9304 18.8371 31.1899Z" fill="#DAAE23"/>
<path d="M18.9825 8.66409C18.9825 8.66409 19.4185 8.76098 19.37 8.2281C19.37 8.2281 19.4185 7.84056 18.8371 7.69523C18.8371 7.69523 12.4911 6.72637 11.4738 12.8786C11.4738 12.8786 10.6503 16.5603 15.6884 20.6295C15.6884 20.6295 19.0794 23.8752 20.8717 25.28C20.8717 25.28 24.4565 28.0897 24.1174 30.1727C24.1174 30.1727 23.8268 31.4323 21.2108 32.062C21.2108 32.062 20.9686 32.062 21.0171 32.4011C21.0171 32.4011 21.114 32.7887 21.6953 32.7887C21.6953 32.7887 26.4427 32.9824 27.6537 29.0586C27.6537 29.0586 29.0586 26.3942 23.8752 22.1312C23.8752 22.1312 20.4358 19.0793 17.8198 16.8025C17.8198 16.8025 13.4115 13.0724 15.2039 10.408C15.3008 10.5049 16.0275 8.76098 18.9825 8.66409Z" fill="url(#paint1_radial_516_3938)"/>
<path d="M21.744 8.95453C21.744 8.95453 21.2111 8.51854 20.7751 8.85765C20.7751 8.85765 20.3876 9.1483 20.7267 9.72962C20.7267 9.72962 20.9205 9.92339 21.308 10.5047C21.308 10.5047 21.9862 11.8611 21.1142 12.9268C21.1142 12.9268 19.5641 15.349 20.3876 17.7711C20.3876 17.7711 21.2111 19.7573 23.488 18.7884C23.488 18.7884 24.9897 17.9649 23.7786 15.8819C23.7786 15.8819 22.7129 13.9441 23.7302 13.605C23.7302 13.605 24.3599 13.3144 24.8444 13.8957C24.8444 13.8957 25.135 14.2348 25.3772 15.1068C25.3772 15.1068 25.7648 16.5116 26.9274 16.7054C26.9274 16.7054 28.1869 16.9961 29.0104 15.9303C29.0104 15.9303 30.27 14.6708 28.962 13.3628C28.962 13.3628 28.5745 12.9753 27.0243 12.5877C27.0243 12.5877 25.9101 12.2486 26.3461 11.5704C26.3461 11.5704 26.6852 11.1345 27.4118 11.522C27.4118 11.522 28.4291 12.1033 28.8651 11.6189C28.8651 11.6189 29.4949 10.7954 28.2354 10.0687C28.2354 10.0687 27.1696 9.39052 24.5053 9.43896C24.4568 9.4874 22.7613 9.63273 21.744 8.95453Z" fill="url(#paint2_radial_516_3938)"/>
</g>
<defs>
<radialGradient id="paint0_radial_516_3938" cx="0" cy="0" r="1" gradientUnits="userSpaceOnUse" gradientTransform="translate(19.9699 19.9688) scale(14.0112)">
<stop offset="0.033898" stop-color="#00ACEC"/>
<stop offset="0.9718" stop-color="#00469C"/>
</radialGradient>
<radialGradient id="paint1_radial_516_3938" cx="0" cy="0" r="1" gradientUnits="userSpaceOnUse" gradientTransform="translate(19.6473 20.2028) scale(10.6242)">
<stop offset="0.045198" stop-color="white"/>
<stop offset="1" stop-color="#DAAE23"/>
</radialGradient>
<radialGradient id="paint2_radial_516_3938" cx="0" cy="0" r="1" gradientUnits="userSpaceOnUse" gradientTransform="translate(24.8263 13.8491) scale(4.9056)">
<stop offset="0.045198" stop-color="white"/>
<stop offset="1" stop-color="#DAAE23"/>
</radialGradient>
<clipPath id="clip0_516_3938">
<rect width="28" height="28" fill="white" transform="translate(6 6)"/>
</clipPath>
</defs>
</svg>
