<svg width="40" height="40" viewBox="0 0 40 40" fill="none" xmlns="http://www.w3.org/2000/svg">
<path d="M22.5264 4.02441C30.4606 4.10973 37.2857 10.0817 38.2242 18.1439C39.248 26.9313 32.9774 34.8656 24.1473 35.8467C23.5501 35.932 22.9103 35.9746 22.3131 35.9746H22.1424C16.597 35.8893 11.6488 32.6474 9.04669 27.6992L1.66699 31.9649C1.66699 24.3292 4.9516 11.788 14.0802 6.3279C14.1229 6.3279 14.1655 6.28524 14.2082 6.28524C14.2509 6.24258 14.2935 6.24259 14.3362 6.19993C16.1704 5.1335 18.2606 4.40832 20.5215 4.15238C21.1187 4.06707 21.7585 4.02441 22.3557 4.02441H22.5264Z" fill="#0064FF"/>
</svg>
