<svg width="40" height="40" viewBox="0 0 40 40" fill="none" xmlns="http://www.w3.org/2000/svg">
<g clip-path="url(#clip0_516_3941)">
<path d="M32.7729 20C32.7729 27.1903 27.0267 33 19.9151 33C12.8604 33 7.11426 27.1327 7.11426 20C7.11426 12.8097 12.8604 7 19.972 7C27.0267 7 32.7729 12.8097 32.7729 20Z" fill="white"/>
<path d="M19.9724 32.3097C26.7427 32.3097 32.2044 26.7876 32.2044 19.9425C32.2044 13.0973 26.6858 7.5752 19.9724 7.5752C13.2022 7.5752 7.68359 13.0973 7.68359 19.9425C7.68359 26.7876 13.2022 32.3097 19.9724 32.3097Z" fill="#007CC0"/>
<mask id="mask0_516_3941" style="mask-type:alpha" maskUnits="userSpaceOnUse" x="7" y="7" width="26" height="26">
<path d="M19.9724 32.3097C26.7427 32.3097 32.2044 26.7876 32.2044 19.9425C32.2044 13.0973 26.6858 7.5752 19.9724 7.5752C13.2022 7.5752 7.68359 13.0973 7.68359 19.9425C7.68359 26.7876 13.2022 32.3097 19.9724 32.3097Z" fill="#007CC0"/>
</mask>
<g mask="url(#mask0_516_3941)">
<path d="M19.9725 25.9243C25.3773 25.9243 29.9857 27.4199 31.92 29.6057C32.6027 28.0526 32.9441 26.3845 32.9441 24.6013C32.9441 17.5261 27.141 11.7739 19.9725 11.7739C12.804 11.7163 7.00098 17.4686 7.00098 24.6013C7.00098 26.3845 7.34233 28.0526 8.02505 29.6057C10.0163 27.4199 14.6246 25.9243 19.9725 25.9243Z" fill="#007CC0"/>
<path d="M19.9725 25.924C25.3204 25.924 29.9288 27.4195 31.92 29.5479C32.6027 27.9948 32.9441 26.3266 32.9441 24.601C32.9441 17.5833 27.141 11.8311 19.9725 11.8311C12.804 11.8311 7.00098 17.5833 7.00098 24.601C7.00098 26.3842 7.34233 28.0523 8.02505 29.5479C10.0163 27.4195 14.6246 25.924 19.9725 25.924Z" fill="#007EC1"/>
<path d="M19.9723 25.9241C25.3202 25.9241 29.9285 27.4196 31.8629 29.548C32.5456 28.0524 32.8869 26.3842 32.8869 24.6011C32.8869 17.6409 27.0839 11.8887 19.9723 11.8887C12.8607 11.8887 7.05762 17.5834 7.05762 24.6011C7.05762 26.3267 7.39897 27.9949 8.08169 29.548C10.0729 27.4196 14.6244 25.9241 19.9723 25.9241Z" fill="#0080C3"/>
<path d="M19.9723 25.9819C25.3202 25.9819 29.8716 27.4775 31.8629 29.5483C32.5456 28.0527 32.8869 26.3845 32.8869 24.6589C32.8869 17.6987 27.0839 12.0615 19.9723 12.0615C12.8607 12.0615 7.05762 17.7562 7.05762 24.6589C7.05762 26.3845 7.39897 28.0527 8.08169 29.5483C10.0729 27.4199 14.6244 25.9819 19.9723 25.9819Z" fill="#0082C4"/>
<path d="M19.973 25.9821C25.3209 25.9821 29.8723 27.4201 31.8067 29.5484C32.4894 28.0529 32.8308 26.4422 32.8308 24.7166C32.8308 17.8139 27.0846 12.1768 19.973 12.1768C12.9183 12.1768 7.11523 17.8139 7.11523 24.6591C7.11523 26.3847 7.45659 27.9953 8.1393 29.4909C10.0737 27.4201 14.682 25.9821 19.973 25.9821Z" fill="#0083C5"/>
<path d="M19.9725 25.9822C25.2635 25.9822 29.8149 27.4202 31.8062 29.491C32.4889 27.9954 32.8303 26.3848 32.8303 24.6592C32.8303 17.814 27.0841 12.2344 20.0294 12.2344C12.9747 12.2344 7.22852 17.8715 7.22852 24.6592C7.22852 26.3848 7.56987 27.9954 8.25259 29.491C10.13 27.4202 14.6815 25.9822 19.9725 25.9822Z" fill="#0085C8"/>
<path d="M19.9727 25.9814C25.2638 25.9814 29.8152 27.4194 31.7496 29.4902C32.3754 28.0522 32.7736 26.384 32.7736 24.7159C32.7736 17.9283 27.0275 12.3486 19.9727 12.3486C12.918 12.3486 7.17188 17.9283 7.17188 24.7159C7.17188 26.384 7.51323 27.9947 8.19594 29.4902C10.1303 27.4194 14.6817 25.9814 19.9727 25.9814Z" fill="#0088CA"/>
<path d="M19.9722 26.0392C25.2633 26.0392 29.7578 27.4772 31.7491 29.4905C32.3749 28.0525 32.7731 26.4418 32.7731 24.7737C32.7731 18.0436 27.0838 12.5215 20.0291 12.5215C12.9744 12.5215 7.28516 18.1011 7.28516 24.7737C7.28516 26.4418 7.62651 28.0525 8.30923 29.4905C10.1867 27.4197 14.6812 26.0392 19.9722 26.0392Z" fill="#0089CB"/>
<path d="M19.9725 26.0393C25.2635 26.0393 29.7581 27.4773 31.6924 29.4906C32.3182 28.0526 32.7165 26.4419 32.7165 24.7738C32.7165 18.1012 27.0272 12.5791 19.9725 12.5791C12.9747 12.5791 7.22852 18.1012 7.22852 24.7738C7.22852 26.4419 7.56987 27.995 8.25259 29.4331C10.1869 27.4198 14.7384 26.0393 19.9725 26.0393Z" fill="#008BCD"/>
<path d="M19.9722 26.0395C25.2064 26.0395 29.7578 27.42 31.6353 29.4333C32.2611 27.9952 32.6593 26.4421 32.6593 24.774C32.6593 18.1589 26.9701 12.6943 19.9722 12.6943C12.9744 12.6943 7.28516 18.2165 7.28516 24.774C7.28516 26.4421 7.62651 27.9952 8.30923 29.4333C10.2436 27.42 14.7381 26.0395 19.9722 26.0395Z" fill="#008DCF"/>
<path d="M19.972 26.0397C25.2061 26.0397 29.7007 27.4202 31.635 29.4335C32.2608 27.9954 32.6591 26.4423 32.6591 24.8317C32.6591 18.2742 26.9698 12.8096 19.972 12.8096C12.9742 12.8096 7.3418 18.2742 7.3418 24.8317C7.3418 26.4423 7.68315 28.0529 8.36587 29.4335C10.2433 27.4202 14.7379 26.0397 19.972 26.0397Z" fill="#008FD1"/>
<path d="M19.972 26.0969C25.2061 26.0969 29.7007 27.4775 31.5781 29.4332C32.2039 28.0527 32.6022 26.4996 32.6022 24.889C32.6022 18.389 26.9698 12.9819 19.972 12.9819C13.0311 12.9244 7.3418 18.389 7.3418 24.8315C7.3418 26.4421 7.68315 27.9952 8.36587 29.3757C10.2433 27.42 14.7379 26.0969 19.972 26.0969Z" fill="#0090D3"/>
<path d="M19.9725 26.0966C25.2066 26.0966 29.6442 27.4771 31.5786 29.4329C32.2044 28.0523 32.6027 26.4992 32.6027 24.8886C32.6027 18.4461 26.9703 13.0391 20.0294 13.0391C13.0884 13.0391 7.45605 18.4461 7.45605 24.8886C7.45605 26.4992 7.79741 28.0523 8.48012 29.4329C10.3007 27.4196 14.7383 26.0966 19.9725 26.0966Z" fill="#0093D5"/>
<path d="M19.972 26.0968C25.1492 26.0968 29.6438 27.4773 31.5212 29.3755C32.147 27.995 32.4884 26.4994 32.4884 24.8888C32.4884 18.5039 26.856 13.1543 19.9151 13.1543C12.9742 13.1543 7.3418 18.5614 7.3418 24.8888C7.3418 26.4994 7.68315 27.995 8.30897 29.3755C10.3002 27.4773 14.7947 26.0968 19.972 26.0968Z" fill="#0094D6"/>
<path d="M19.9725 26.097C25.1497 26.097 29.5873 27.42 31.5217 29.3757C32.1475 27.9952 32.4889 26.4996 32.4889 24.9465C32.4889 18.6191 26.8565 13.2695 19.9725 13.2695C13.0884 13.2695 7.45605 18.6191 7.45605 24.9465C7.45605 26.4996 7.79741 28.0527 8.42323 29.3757C10.3576 27.4775 14.7952 26.097 19.9725 26.097Z" fill="#0097D7"/>
<path d="M19.9727 26.0971C25.15 26.0971 29.5876 27.4201 31.4651 29.3183C32.0909 27.9378 32.4322 26.4997 32.4322 24.8891C32.4322 18.6192 26.8567 13.3271 19.9158 13.3271C13.0318 13.3271 7.39941 18.6767 7.39941 24.8891C7.39941 26.4422 7.74077 27.9378 8.36659 29.3183C10.3578 27.4776 14.7955 26.0971 19.9727 26.0971Z" fill="#0098D8"/>
<path d="M19.9722 26.1539C25.1495 26.1539 29.5302 27.4769 31.4646 29.3751C32.0904 28.0521 32.4317 26.5565 32.4317 25.0034C32.4317 18.7911 26.8562 13.499 19.9722 13.499C13.0882 13.499 7.5127 18.7911 7.5127 25.0034C7.5127 26.5565 7.85405 28.0521 8.47987 29.3751C10.3573 27.4769 14.795 26.1539 19.9722 26.1539Z" fill="#009BD9"/>
<path d="M19.9729 26.1541C25.0933 26.1541 29.5309 27.4771 31.4084 29.3178C32.0342 27.9948 32.3756 26.4992 32.3756 25.0036C32.3756 18.8488 26.8001 13.6143 19.9729 13.6143C13.0889 13.6143 7.57031 18.9063 7.57031 25.0036C7.57031 26.5567 7.91167 27.9948 8.53749 29.3178C10.415 27.4771 14.8526 26.1541 19.9729 26.1541Z" fill="#009DDA"/>
<path d="M19.9729 26.1542C25.0933 26.1542 29.5309 27.4197 31.4084 29.3179C32.0342 27.9949 32.3756 26.5568 32.3756 25.0037C32.3756 18.9064 26.8001 13.6719 19.9729 13.6719C13.1458 13.6719 7.57031 18.9639 7.57031 25.0037C7.57031 26.4993 7.91167 27.9949 8.53749 29.3179C10.415 27.4772 14.8526 26.1542 19.9729 26.1542Z" fill="#00A0DA"/>
<path d="M19.9727 26.1544C25.093 26.1544 29.4738 27.4199 31.3512 29.2606C31.9771 27.9375 32.3184 26.4995 32.3184 25.0039C32.3184 18.9641 26.7998 13.7871 19.9727 13.7871C13.1456 13.7871 7.62695 19.0216 7.62695 25.0039C7.62695 26.4995 7.96831 27.9375 8.59413 29.2606C10.4716 27.4774 14.8523 26.1544 19.9727 26.1544Z" fill="#00A2DB"/>
<path d="M19.9727 26.2121C25.093 26.2121 29.4738 27.4776 31.3512 29.3183C31.9771 28.0528 32.3184 26.6147 32.3184 25.1192C32.2615 19.0793 26.7429 13.9023 19.9727 13.9023C13.1456 13.9023 7.62695 19.0793 7.62695 25.0616C7.62695 26.5572 7.96831 27.9953 8.59413 29.2607C10.4716 27.4776 14.8523 26.2121 19.9727 26.2121Z" fill="#00A4DC"/>
<path d="M19.9724 26.2114C25.0359 26.2114 29.4166 27.4769 31.2941 29.2601C31.9199 27.9946 32.2613 26.5565 32.2613 25.1185C32.2613 19.1937 26.7427 14.0742 19.9724 14.0742C13.2022 14.0742 7.68359 19.2512 7.68359 25.1185C7.68359 26.614 8.02495 27.9946 8.65077 29.2601C10.5282 27.4769 14.8521 26.2114 19.9724 26.2114Z" fill="#00A6DC"/>
<path d="M19.9724 26.2125C25.0359 26.2125 29.4166 27.4779 31.2372 29.2611C31.863 27.9956 32.2044 26.6151 32.2044 25.1195C32.2044 19.2523 26.7427 14.1328 19.9155 14.1328C13.1453 14.1328 7.68359 19.2523 7.68359 25.1195C7.68359 26.5576 8.02495 27.9956 8.65077 29.2611C10.5282 27.4779 14.909 26.2125 19.9724 26.2125Z" fill="#00A8DD"/>
<path d="M19.9722 26.2117C25.0356 26.2117 29.3595 27.4196 31.2369 29.2028C31.8628 27.9373 32.2041 26.5568 32.2041 25.1188C32.2041 19.309 26.7424 14.2471 19.9722 14.2471C13.2019 14.2471 7.74023 19.3665 7.74023 25.1188C7.74023 26.5568 8.08159 27.9373 8.70741 29.2028C10.528 27.4772 14.9087 26.2117 19.9722 26.2117Z" fill="#00A9DE"/>
<path d="M19.9729 26.2694C25.0364 26.2694 29.3602 27.4774 31.1808 29.203C31.8066 27.9375 32.148 26.6145 32.148 25.1765C32.148 19.4243 26.6863 14.3623 19.9729 14.3623C13.2596 14.3623 7.79785 19.4243 7.79785 25.1765C7.79785 26.6145 8.13921 27.995 8.76503 29.203C10.5856 27.4774 14.9094 26.2694 19.9729 26.2694Z" fill="#00ABDF"/>
<path d="M19.9729 26.2696C24.9795 26.2696 29.3033 27.4775 31.1808 29.2032C31.8066 27.9952 32.148 26.6147 32.148 25.1767C32.148 19.482 26.6863 14.4775 19.9729 14.4775C13.2596 14.4775 7.79785 19.482 7.79785 25.1767C7.79785 26.6147 8.13921 27.9377 8.76503 29.2032C10.5856 27.4775 14.9094 26.2696 19.9729 26.2696Z" fill="#00ADE0"/>
<path d="M19.9727 26.2697C24.9792 26.2697 29.3031 27.4776 31.1236 29.1458C31.7495 27.9378 32.0908 26.6148 32.0908 25.1768C32.0908 19.5396 26.686 14.5352 19.9727 14.5352C13.2593 14.5927 7.85449 19.5971 7.85449 25.2343C7.85449 26.6148 8.19585 27.9953 8.82167 29.2033C10.6422 27.4776 14.9092 26.2697 19.9727 26.2697Z" fill="#00AFE1"/>
<path d="M19.9727 26.27C24.9792 26.27 29.3031 27.4779 31.1236 29.1461C31.7495 27.9381 32.0908 26.6151 32.0908 25.2346C32.0908 19.6549 26.686 14.708 19.9727 14.708C13.2593 14.708 7.85449 19.6549 7.85449 25.2346C7.85449 26.6151 8.19585 27.9381 8.82167 29.1461C10.6422 27.4779 14.9661 26.27 19.9727 26.27Z" fill="#00B0E2"/>
<path d="M19.9724 26.3266C24.979 26.3266 29.2459 27.477 31.0665 29.1452C31.6923 27.9372 32.0337 26.6142 32.0337 25.2337C32.0337 19.7116 26.6289 14.7646 19.9724 14.7646C13.3159 14.7646 7.91113 19.7116 7.91113 25.2337C7.91113 26.6142 8.25249 27.9372 8.87831 29.1452C10.6989 27.477 14.9658 26.3266 19.9724 26.3266Z" fill="#09B2E3"/>
<path d="M19.9729 26.3269C24.9794 26.3269 29.2464 27.4773 31.067 29.1455C31.6928 27.995 32.0341 26.672 32.0341 25.2915C32.0341 19.8269 26.6293 14.9375 20.0298 14.9375C13.3733 14.9375 8.02539 19.8844 8.02539 25.2915C8.02539 26.672 8.36675 27.9375 8.99257 29.1455C10.6994 27.4773 14.9663 26.3269 19.9729 26.3269Z" fill="#15B4E4"/>
<path d="M19.9721 26.327C24.9218 26.327 29.1888 27.4774 31.0093 29.088C31.6352 27.9376 31.9765 26.6146 31.9765 25.2916C31.9765 19.8845 26.6286 14.9951 19.9721 14.9951C13.3726 14.9951 7.96777 19.8845 7.96777 25.2916C7.96777 26.6146 8.30913 27.9376 8.93495 29.088C10.6986 27.4774 14.9656 26.327 19.9721 26.327Z" fill="#22B6E6"/>
<path d="M19.9726 26.3273C24.9223 26.3273 29.1892 27.4777 31.0098 29.0883C31.6356 27.9379 31.977 26.6724 31.977 25.3494C31.977 19.9998 26.6291 15.168 20.0295 15.168C13.43 15.168 8.08203 20.0573 8.08203 25.3494C8.08203 26.6724 8.42339 27.9379 9.04921 29.0883C10.756 27.4777 15.0229 26.3273 19.9726 26.3273Z" fill="#30B8E7"/>
<path d="M19.9729 26.384C24.9225 26.384 29.1895 27.5344 30.9532 29.1451C31.579 27.9946 31.9204 26.7291 31.9204 25.4061C31.9204 20.1141 26.5724 15.2822 19.9729 15.2822C13.3733 15.2822 8.02539 20.1141 8.02539 25.4061C8.02539 26.7291 8.36675 27.9946 8.99257 29.1451C10.7562 27.4769 15.0232 26.384 19.9729 26.384Z" fill="#43BBE8"/>
<path d="M19.9729 26.384C24.9225 26.384 29.1326 27.4769 30.9532 29.0875C31.579 27.9371 31.9204 26.6716 31.9204 25.3486C31.9204 20.0566 26.5724 15.2822 19.9729 15.2822C13.3733 15.2822 8.02539 20.1141 8.02539 25.3486C8.02539 26.6716 8.36675 27.9371 8.99257 29.0875C10.7562 27.5344 15.0232 26.384 19.9729 26.384Z" fill="#4FBDEA"/>
<path d="M19.9729 26.4418C24.9225 26.4418 29.1326 27.5347 30.9532 29.1453C31.579 27.9949 31.9204 26.7869 31.9204 25.4639C31.9204 20.2294 26.5724 15.4551 20.0298 15.4551C13.3733 15.4551 8.02539 20.2294 8.02539 25.4639C8.02539 26.7869 8.36675 28.0524 8.99257 29.1453C10.7562 27.5347 15.0232 26.4418 19.9729 26.4418Z" fill="#5AC0EC"/>
<path d="M19.9724 26.4419C24.922 26.4419 29.1321 27.5348 30.9527 29.1454C31.5785 27.995 31.9199 26.787 31.9199 25.464C31.9199 20.287 26.5719 15.5127 20.0293 15.5127C13.4866 15.5127 8.13867 20.287 8.13867 25.464C8.13867 26.787 8.48003 27.995 9.10585 29.1454C10.8126 27.5923 15.0227 26.4419 19.9724 26.4419Z" fill="#64C3EE"/>
<path d="M19.9726 26.4996C24.8654 26.4996 29.1324 27.5925 30.896 29.1456C31.5219 28.0527 31.8632 26.7872 31.8632 25.5217C31.8632 20.3447 26.5722 15.6279 19.9726 15.6279C13.3731 15.6279 8.08203 20.3447 8.08203 25.5217C8.08203 26.7872 8.42339 28.0527 8.99232 29.1456C10.8129 27.5925 15.0229 26.4996 19.9726 26.4996Z" fill="#6DC6EF"/>
<path d="M19.9729 26.5573C24.8656 26.5573 29.0757 27.6502 30.8963 29.2033C31.5221 28.1104 31.8066 26.8449 31.8066 25.5794C31.8066 20.46 26.5155 15.7432 19.916 15.7432C13.3733 15.7432 8.02539 20.46 8.02539 25.5794C8.02539 26.8449 8.36675 28.1104 8.93567 29.2033C10.8131 27.5927 15.0232 26.5573 19.9729 26.5573Z" fill="#75C9F1"/>
<path d="M19.9724 26.5575C24.8652 26.5575 29.0752 27.6504 30.8958 29.2035C31.5216 28.1106 31.8061 26.9027 31.8061 25.6372C31.8061 20.5177 26.515 15.8584 19.9724 15.8584C13.4297 15.8584 8.13867 20.5177 8.13867 25.6372C8.13867 26.9027 8.48003 28.1106 9.04896 29.2035C10.8126 27.6504 15.0227 26.5575 19.9724 26.5575Z" fill="#7ECBF1"/>
<path d="M19.9724 26.6142C24.8651 26.6142 29.0752 27.7071 30.8389 29.2027C31.4647 28.1097 31.7492 26.9018 31.7492 25.6363C31.7492 20.5743 26.4581 15.915 19.9155 15.915C13.4297 15.915 8.13867 20.5743 8.13867 25.6363C8.13867 26.9018 8.48003 28.1097 9.04896 29.2027C10.8695 27.6496 15.0227 26.6142 19.9724 26.6142Z" fill="#85CDF1"/>
<path d="M19.9724 26.6143C24.8651 26.6143 29.0752 27.7072 30.8389 29.2027C31.4647 28.1098 31.7492 26.9019 31.7492 25.6364C31.7492 20.6319 26.4581 15.9727 19.9155 15.9727C13.4297 16.0302 8.13867 20.6319 8.13867 25.6939C8.13867 26.9594 8.48003 28.1673 9.04896 29.2603C10.8695 27.7072 15.0796 26.6143 19.9724 26.6143Z" fill="#8CD0F1"/>
<path d="M19.9724 26.6721C24.8651 26.6721 29.0752 27.7075 30.8389 29.2605C31.4647 28.1676 31.7492 27.0172 31.7492 25.7517C31.7492 20.7473 26.4581 16.1455 19.9724 16.1455C13.4297 16.1455 8.13867 20.7473 8.13867 25.6942C8.13867 26.9597 8.48003 28.1101 9.04896 29.203C10.8695 27.7074 15.0796 26.6721 19.9724 26.6721Z" fill="#93D2F1"/>
<path d="M19.9724 26.6721C24.8651 26.6721 29.0183 27.7075 30.8389 29.2031C31.4647 28.1102 31.7492 26.9598 31.7492 25.6943C31.7492 20.7474 26.4581 16.2031 19.9724 16.2031C13.4297 16.2606 8.13867 20.8049 8.13867 25.7518C8.13867 27.0173 8.48003 28.1677 9.04896 29.2606C10.8695 27.7651 15.0796 26.6721 19.9724 26.6721Z" fill="#99D5F1"/>
<path d="M19.9724 26.729C24.8651 26.729 29.0183 27.7644 30.782 29.26C31.4078 28.2246 31.6923 27.0166 31.6923 25.8086C31.6923 20.8617 26.4013 16.375 19.9155 16.375C13.4297 16.375 8.13867 20.9192 8.13867 25.8086C8.13867 27.0166 8.48003 28.2246 9.04896 29.26C10.8695 27.7644 15.0796 26.729 19.9724 26.729Z" fill="#9ED7F1"/>
<path d="M19.9724 26.7301C24.8083 26.7301 29.0183 27.7654 30.782 29.261C31.4078 28.2256 31.6923 27.0177 31.6923 25.8097C31.6923 20.9203 26.4581 16.4336 19.9155 16.4336C13.4297 16.4336 8.13867 20.9203 8.13867 25.8097C8.13867 27.0177 8.48003 28.2256 9.04896 29.261C10.9264 27.7654 15.0796 26.7301 19.9724 26.7301Z" fill="#A5D9F1"/>
<path d="M19.9728 26.7869C24.8087 26.7869 29.0188 27.8223 30.7825 29.3179C31.3514 28.2825 31.6928 27.132 31.6928 25.9241C31.6928 21.0922 26.4586 16.6055 19.9728 16.6055C13.4871 16.6055 8.25293 21.0922 8.25293 25.9241C8.25293 27.132 8.59429 28.2825 9.16321 29.3179C10.9269 27.8223 15.0801 26.7869 19.9728 26.7869Z" fill="#ABDBF1"/>
<path d="M19.9728 26.8445C24.8087 26.8445 28.9619 27.8799 30.7825 29.318C31.3514 28.2826 31.6928 27.1321 31.6928 25.9241C31.6928 21.0923 26.4586 16.6631 19.9728 16.6631C13.4871 16.6631 8.25293 21.0923 8.25293 25.9241C8.25293 27.1321 8.59429 28.2826 9.16321 29.318C10.9269 27.8224 15.0801 26.8445 19.9728 26.8445Z" fill="#B0DCF1"/>
<path d="M19.9721 26.8446C24.808 26.8446 28.9612 27.88 30.7249 29.318C31.2938 28.2826 31.6351 27.1322 31.6351 25.9242C31.6351 21.1499 26.401 16.7207 19.9152 16.7207C13.4294 16.7207 8.19531 21.1499 8.19531 25.9242C8.19531 27.1322 8.53667 28.2826 9.1056 29.318C10.9262 27.88 15.0793 26.8446 19.9721 26.8446Z" fill="#B8DFF0"/>
<path d="M19.9728 26.9024C24.8087 26.9024 28.9619 27.9378 30.7256 29.3759C31.2945 28.3405 31.6359 27.19 31.6359 26.0396C31.6359 21.2652 26.4017 16.8936 19.9728 16.8936C13.544 16.8936 8.25293 21.2652 8.25293 25.982C8.25293 27.19 8.59429 28.2829 9.16321 29.3183C10.9269 27.8803 15.137 26.9024 19.9728 26.9024Z" fill="#BDE0F1"/>
<path d="M19.9726 26.9024C24.8085 26.9024 28.9616 27.8803 30.7253 29.3183C31.2943 28.2829 31.6356 27.19 31.6356 25.982C31.6356 21.2652 26.4015 16.8936 19.9726 16.8936C13.5437 16.8936 8.30957 21.2652 8.30957 25.982C8.30957 27.19 8.65093 28.2829 9.21985 29.3183C10.9835 27.9378 15.1367 26.9024 19.9726 26.9024Z" fill="#C3E2F1"/>
<path d="M19.9726 26.9592C24.8085 26.9592 28.9616 27.9371 30.7253 29.3752C31.2943 28.3398 31.6356 27.2468 31.6356 26.0964C31.6356 21.4371 26.4015 17.0654 19.9726 17.0654C13.4868 17.0654 8.30957 21.3796 8.30957 26.0389C8.30957 27.1893 8.65093 28.3398 9.21985 29.3176C10.9835 27.9371 15.1367 26.9592 19.9726 26.9592Z" fill="#C8E4F1"/>
<path d="M19.9728 26.9593C24.8087 26.9593 28.905 27.9372 30.6687 29.3753C31.2376 28.3974 31.579 27.2469 31.579 26.0965C31.579 21.4372 26.3448 17.123 19.916 17.123C13.4871 17.123 8.25293 21.4372 8.25293 26.0965C8.25293 27.2469 8.59429 28.3974 9.16321 29.3753C10.9838 27.9372 15.137 26.9593 19.9728 26.9593Z" fill="#CDE6F1"/>
<path d="M19.9723 27.017C24.8082 27.017 28.9045 27.9949 30.6682 29.3755C31.2371 28.3976 31.5785 27.3047 31.5785 26.1542C31.5785 21.5524 26.4012 17.2383 19.9723 17.2383C13.5435 17.2383 8.36621 21.5524 8.36621 26.1542C8.36621 27.3047 8.70757 28.3976 9.2765 29.3755C10.9833 27.9949 15.1365 27.017 19.9723 27.017Z" fill="#D3E8F3"/>
<path d="M19.9723 27.0172C24.7513 27.0172 28.9045 27.9951 30.6682 29.3756C31.2371 28.3978 31.5785 27.3048 31.5785 26.1544C31.5785 21.5526 26.4012 17.3535 19.9723 17.3535C13.5435 17.3535 8.36621 21.6102 8.36621 26.1544C8.36621 27.3048 8.70757 28.3978 9.2765 29.3756C11.0402 27.9951 15.1365 27.0172 19.9723 27.0172Z" fill="#D8EAF3"/>
<path d="M19.9723 27.0749C24.7513 27.0749 28.9045 28.0528 30.6682 29.4333C31.2371 28.4555 31.5785 27.3626 31.5785 26.2121C31.5785 21.6679 26.4012 17.4688 19.9723 17.4688C13.6003 17.4688 8.36621 21.7254 8.36621 26.2121C8.36621 27.3626 8.70757 28.4555 9.2765 29.4333C11.0402 28.0528 15.1365 27.0749 19.9723 27.0749Z" fill="#DDEDF5"/>
<path d="M19.9721 27.075C24.7511 27.075 28.8474 28.0529 30.611 29.3759C31.18 28.398 31.5213 27.3051 31.5213 26.2122C31.5213 21.7255 26.3441 17.5264 19.9721 17.5264C13.6001 17.5264 8.42285 21.7255 8.42285 26.2122C8.42285 27.3626 8.76421 28.398 9.33314 29.3759C11.0399 28.0529 15.1362 27.075 19.9721 27.075Z" fill="#E2EFF6"/>
<path d="M19.9721 27.1318C24.7511 27.1318 28.8474 28.1097 30.611 29.4327C31.18 28.4548 31.5213 27.4194 31.5213 26.2689C31.5213 21.7822 26.3441 17.6406 19.9721 17.6406C13.6001 17.6406 8.42285 21.8397 8.42285 26.2689C8.42285 27.4194 8.76421 28.4548 9.33314 29.4327C11.0399 28.1097 15.1362 27.1318 19.9721 27.1318Z" fill="#E6F1F7"/>
<path d="M19.9721 27.1896C24.7511 27.1896 28.8474 28.1099 30.611 29.4905C31.18 28.5126 31.5213 27.4772 31.5213 26.3843C31.5213 21.9551 26.3441 17.8135 19.9721 17.8135C13.6001 17.8135 8.42285 21.9551 8.42285 26.3843C8.42285 27.4772 8.76421 28.5701 9.33314 29.4905C11.0399 28.1099 15.1931 27.1896 19.9721 27.1896Z" fill="#EBF3F8"/>
<path d="M19.9721 27.1896C24.7511 27.1896 28.8474 28.1099 30.611 29.4329C31.18 28.5126 31.5213 27.4197 31.5213 26.3267C31.5213 21.9551 26.3441 17.8135 19.9721 17.8135C13.6001 17.871 8.42285 21.9551 8.42285 26.3843C8.42285 27.4772 8.76421 28.5126 9.33314 29.4905C11.0968 28.1099 15.1931 27.1896 19.9721 27.1896Z" fill="#F0F6FA"/>
<path d="M19.9721 27.2473C24.7511 27.2473 28.8474 28.1676 30.5541 29.4907C31.1231 28.5703 31.4644 27.5349 31.4644 26.442C31.4644 22.0128 26.2872 17.9287 19.9721 17.9287C13.6001 17.9287 8.42285 22.0128 8.42285 26.3845C8.42285 27.4774 8.76421 28.5128 9.33314 29.4907C11.0968 28.1676 15.1931 27.2473 19.9721 27.2473Z" fill="#F4F9FB"/>
<path d="M19.9728 27.2475C24.7518 27.2475 28.7912 28.1678 30.5549 29.4908C31.1238 28.5705 31.4652 27.5351 31.4652 26.4422C31.4652 22.128 26.3448 18.0439 19.9728 18.0439C13.6008 18.0439 8.48047 22.128 8.48047 26.4422C8.48047 27.5351 8.82183 28.5705 9.39075 29.4908C11.0975 28.1678 15.1938 27.2475 19.9728 27.2475Z" fill="#F7FBFC"/>
<path d="M19.9728 27.3052C24.6949 27.3052 28.7912 28.2255 30.5549 29.5486C31.1238 28.6282 31.4652 27.5928 31.4652 26.4999C31.4652 22.1857 26.3448 18.1592 19.9728 18.1592C13.6577 18.1592 8.48047 22.1857 8.48047 26.4999C8.48047 27.5928 8.82183 28.6282 9.39075 29.5486C11.0975 28.2255 15.1938 27.3052 19.9728 27.3052Z" fill="#FCFDFE"/>
<path d="M19.9726 27.3043C24.6947 27.3043 28.7909 28.2247 30.4977 29.4902C31.0666 28.5698 31.408 27.5344 31.408 26.499C31.408 22.2424 26.2877 18.2158 19.9726 18.2158C13.6575 18.2158 8.53711 22.2424 8.53711 26.499C8.53711 27.5919 8.87847 28.5698 9.44739 29.4902C11.1542 28.2247 15.1936 27.3043 19.9726 27.3043Z" fill="white"/>
</g>
<path d="M19.9725 23.0488C15.8194 23.0488 11.9506 23.7391 8.76465 24.9471C10.6421 29.3187 14.966 32.3099 19.9725 32.3099C24.9791 32.3099 29.2461 29.3187 31.1804 24.9471C27.9375 23.7966 24.0688 23.0488 19.9725 23.0488Z" fill="#007CC0"/>
</g>
<defs>
<clipPath id="clip0_516_3941">
<rect width="26" height="26" fill="white" transform="translate(7 7)"/>
</clipPath>
</defs>
</svg>
